<svg xmlns="http://www.w3.org/2000/svg" viewBox="0 0 187.42 187.42"><defs><style>.cls-1{fill:#4a017d;}.cls-1,.cls-2,.cls-3,.cls-4{stroke:#fff;stroke-miterlimit:10;}.cls-2,.cls-3,.cls-4{fill:#fff;}.cls-3,.cls-4{font-size:12px;font-family:JosefinSans-Bold, Josefin Sans;font-weight:700;}.cls-3{stroke-width:3px;}.cls-4{stroke-width:2px;}</style></defs><title>omni-icon</title><g id="Layer_2" data-name="Layer 2"><g id="Logo"><path class="cls-1" d="M93.71.5a93.21,93.21,0,1,0,93.21,93.21A93.21,93.21,0,0,0,93.71.5ZM24.5,100H20.39v3.42a7,7,0,0,1-.57,1.26,5.29,5.29,0,0,1-2.5,2.62,4.77,4.77,0,0,1-4.22-.8,5.06,5.06,0,0,1-1.71-2.28l-.57-3.53a4.06,4.06,0,0,1-2.51-.12A4.11,4.11,0,0,1,6.6,99.31a4.87,4.87,0,0,1-.91-3.88,4.64,4.64,0,0,1,2.62-3.19,4.54,4.54,0,0,1,3.08-.11l.11-4.22a5.17,5.17,0,0,1,4-2.28,5.3,5.3,0,0,1,4.33,2.5,4.83,4.83,0,0,1,.57,1.26v3.88H24.5Zm60-82.14L94,9l9,8.84v4.3l-.57,1.59-1.81,1.35H96.94V29H91.16V25.09H87.54L86,23.74l-1.47-1.82Zm9.07,163.73L85.7,172.9l8.43-8.7,7.59,9Zm.16-22.36a62.65,62.65,0,1,1,62.65-62.65A62.65,62.65,0,0,1,93.71,159.22ZM181.28,99a7.06,7.06,0,0,1,.2,4.07,6.14,6.14,0,0,1-2.23,3.56c-2.36,1.71-5.34.79-6,.58a8.44,8.44,0,0,1-1.17-.47l-9.57-10.9,10.65-9.21a4.45,4.45,0,0,1,1.39-.83,5.49,5.49,0,0,1,4.54.69,6.36,6.36,0,0,1,2.65,3.45,6.57,6.57,0,0,1,.08,3.82A6.35,6.35,0,0,1,180.61,96l-.82.54A7.2,7.2,0,0,1,181.28,99ZM93.71,40.47a56.1,56.1,0,1,0,56.1,56.1A56.1,56.1,0,0,0,93.71,40.47Zm0,0a56.1,56.1,0,1,0,56.1,56.1A56.1,56.1,0,0,0,93.71,40.47Z"/><path class="cls-2" d="M93.71,33.93a62.65,62.65,0,1,0,62.65,62.64A62.65,62.65,0,0,0,93.71,33.93Zm0,118.75a56.1,56.1,0,1,1,56.1-56.11A56.1,56.1,0,0,1,93.71,152.68Z"/><polygon class="cls-2" points="101.72 173.21 93.55 181.58 85.7 172.9 94.13 164.2 101.72 173.21"/><path class="cls-2" d="M180.61,96l-.82.54A7.2,7.2,0,0,1,181.28,99a7.06,7.06,0,0,1,.2,4.07,6.14,6.14,0,0,1-2.23,3.56c-2.36,1.71-5.34.79-6,.58a8.44,8.44,0,0,1-1.17-.47l-9.57-10.9,10.65-9.21a4.45,4.45,0,0,1,1.39-.83,5.49,5.49,0,0,1,4.54.69,6.36,6.36,0,0,1,2.65,3.45,6.57,6.57,0,0,1,.08,3.82A6.35,6.35,0,0,1,180.61,96Z"/><path class="cls-2" d="M102.94,17.85v4.3l-.57,1.59-1.81,1.35H96.94V29H91.16V25.09H87.54L86,23.74l-1.47-1.82V17.85L94,9Z"/><path class="cls-2" d="M24.5,93.27V100H20.39v3.42a7,7,0,0,1-.57,1.26,5.29,5.29,0,0,1-2.5,2.62,4.77,4.77,0,0,1-4.22-.8,5.06,5.06,0,0,1-1.71-2.28l-.57-3.53a4.06,4.06,0,0,1-2.51-.12A4.11,4.11,0,0,1,6.6,99.31a4.87,4.87,0,0,1-.91-3.88,4.64,4.64,0,0,1,2.62-3.19,4.54,4.54,0,0,1,3.08-.11l.11-4.22a5.17,5.17,0,0,1,4-2.28,5.3,5.3,0,0,1,4.33,2.5,4.83,4.83,0,0,1,.57,1.26v3.88Z"/><path class="cls-1" d="M149.81,96.57a56.1,56.1,0,1,1-56.1-56.1A56.1,56.1,0,0,1,149.81,96.57Z"/><text class="cls-3" transform="translate(35.47 51.28) rotate(-50.67)">O</text><text class="cls-4" transform="matrix(0.75, 0.66, -0.66, 0.75, 137.33, 41.07)">M</text><text class="cls-4" transform="matrix(-0.64, 0.77, -0.77, -0.64, 145.11, 143.91)">N</text><text class="cls-3" transform="matrix(0.64, 0.77, -0.77, 0.64, 33.09, 149.36)">I</text></g></g></svg>